<svg width="79" height="42" viewBox="0 0 79 42" fill="none" xmlns="http://www.w3.org/2000/svg">
<g clip-path="url(#clip0_2704_21171)">
<path d="M28.7505 41.998C30.7957 41.998 32.4536 40.3839 32.4536 38.3929C32.4536 36.4018 30.7957 34.7877 28.7505 34.7877C26.7053 34.7877 25.0474 36.4018 25.0474 38.3929C25.0474 40.3839 26.7053 41.998 28.7505 41.998Z" fill="#EAC544"/>
<path d="M60.3159 41.998C62.3611 41.998 64.019 40.3839 64.019 38.3929C64.019 36.4018 62.3611 34.7877 60.3159 34.7877C58.2707 34.7877 56.6128 36.4018 56.6128 38.3929C56.6128 40.3839 58.2707 41.998 60.3159 41.998Z" fill="#EAC544"/>
<path d="M14.5575 22.1369C13.4895 20.1925 10.5262 1.60913 10.5486 1.45238C10.2665 1.0012 9.86069 0.635626 9.37676 0.396825C8.88528 0.139874 8.33678 0.003653 7.77893 0C7.66385 0.000553817 7.55085 0.0299355 7.45081 0.0853175C7.34483 0.138889 7.23274 0.202381 7.12065 0.269841L7.0167 0.468254C7.0167 0.468254 6.20149 3.78571 5.83668 5.4881C5.47187 7.19048 5.07241 8.88889 4.65461 10.5913C4.23681 12.2937 3.77825 13.9742 3.28505 15.6448C2.79184 17.3155 2.21304 18.9425 1.56494 20.5437C1.49565 20.7004 1.37948 20.9405 1.21847 21.254C1.05747 21.5675 0.880156 21.8968 0.706922 22.2222C0.533689 22.5476 0.368607 22.8512 0.221868 23.1329C0.075129 23.4147 -0.118485 23.8075 0.103662 24.125C0.352303 24.4762 1.78709 25.0436 2.04388 25.1171C2.26996 25.1804 2.50363 25.2144 2.73885 25.2183C2.80815 25.2183 3.69673 25.0655 4.02282 24.623C4.37651 24.1324 4.68414 23.6118 4.94198 23.0675C5.22614 22.4869 5.4752 21.8906 5.6879 21.2817C5.89171 20.6865 6.04456 20.2619 6.14035 20.0139C6.65152 19.9224 7.16713 19.8562 7.68518 19.8155C8.2273 19.7679 8.74293 19.748 9.23002 19.748H10.0452C10.3186 19.7455 10.5915 19.768 10.8605 19.8155C11.0908 20.3671 14.9162 22.7857 14.5575 22.1369ZM9.52554 18.2341C9.22202 18.1768 8.91352 18.1482 8.60434 18.1488C8.28029 18.1488 7.96236 18.1607 7.65054 18.1825C7.33872 18.2044 7.02078 18.2381 6.69469 18.2837C7.15529 16.8843 7.5629 15.4815 7.91752 14.0754C8.27825 12.6687 8.61657 11.254 8.93654 9.83532C9.09551 11.2546 9.26874 12.6964 9.45624 14.1607C9.6349 15.5968 9.96057 17.0119 10.4284 18.3849C10.1186 18.3393 9.81086 18.2877 9.52554 18.2341Z" fill="#159671"/>
<path d="M26.5987 10.0873C26.5995 10.0958 26.602 10.1041 26.6062 10.1116C26.6104 10.1191 26.6162 10.1257 26.6232 10.1309C26.615 10.1012 26.6069 10.0873 26.5987 10.0873ZM25.3311 15.129C25.3545 15.1308 25.3777 15.1348 25.4003 15.1409C25.4455 15.1528 25.4921 15.1588 25.5389 15.1587C25.4724 15.1353 25.4017 15.1252 25.3311 15.129Z" fill="#159671"/>
<path d="M29.5516 13.0119C29.5646 13.5335 29.4867 14.0534 29.3213 14.5496C29.1684 14.9682 28.7792 15.2976 28.1494 15.5417H27.9008L27.5869 15.5079H27.3831L27.2099 15.4742L27.1752 15.4405C26.7816 15.3517 26.3999 15.2186 26.038 15.0436C25.6821 14.8811 25.367 14.6447 25.1148 14.3512L24.9741 13.9544C25.132 13.535 25.3235 13.1283 25.5468 12.7381C25.7576 12.3303 25.8479 11.8735 25.8077 11.4186C25.1238 12.0159 24.5229 12.6976 24.0203 13.4464C23.5228 14.1889 23.0984 14.9755 22.7527 15.7956C22.4013 16.6284 22.0998 17.4804 21.8498 18.3472C21.5957 19.2268 21.3532 20.0866 21.1222 20.9266C21.092 21.0655 21.0858 21.2083 21.1039 21.3492C21.1039 21.5635 21.1263 21.7877 21.1385 22.0238C21.1508 22.2599 21.161 22.498 21.1732 22.7341C21.1854 22.9702 21.1915 23.1309 21.1915 23.2242V24.0694L21.0529 24.373C20.8637 24.4409 20.6636 24.4752 20.4619 24.4742C19.8946 24.5167 19.3279 24.3847 18.8419 24.0966C18.3559 23.8086 17.9751 23.3792 17.7534 22.869C17.5085 22.345 17.3503 21.7865 17.2846 21.2143C17.2037 20.5917 17.1635 19.9648 17.1644 19.3373C17.1644 18.7083 17.1868 18.0913 17.2337 17.496C17.2805 16.9008 17.3029 16.377 17.3029 15.9246C17.3032 15.0098 17.2508 14.0956 17.146 13.1865C17.0426 12.2886 16.9909 11.3857 16.9911 10.4821V10.6805C16.9911 10.498 16.9911 10.3214 16.9728 10.1389C16.9544 9.95634 16.9422 9.77976 16.9218 9.5992C16.8836 9.53901 16.8599 9.47117 16.8525 9.40079C16.8939 9.25649 16.9783 9.12738 17.0951 9.02975H17.2683C17.4778 9.03324 17.6849 9.07357 17.8797 9.1488C18.0978 9.22817 18.3016 9.31349 18.4911 9.40079L18.6949 9.50198C19.0953 9.67032 19.4513 9.92469 19.7364 10.246C20.008 10.5647 20.2255 10.9238 20.3804 11.3095C20.5417 11.704 20.6691 12.1108 20.7615 12.5258C20.8532 12.9444 20.9225 13.3532 20.9653 13.7599C21.1587 13.3628 21.3786 12.9783 21.6236 12.6091C21.9118 12.1747 22.2262 11.7573 22.5652 11.3591C22.9051 10.9638 23.2721 10.5912 23.6637 10.244C23.9957 9.93714 24.3834 9.69293 24.807 9.5238L24.8417 9.49007V9.5238L24.8763 9.49007C25.0801 9.44444 25.2839 9.39285 25.4877 9.33928C25.6978 9.28116 25.9154 9.25243 26.1338 9.25396L25.9911 9.28769C26.4933 9.18951 27.0147 9.25505 27.4748 9.4742C27.9049 9.68895 28.2845 9.98825 28.5896 10.3532C28.9065 10.7285 29.1479 11.1586 29.3009 11.621C29.463 12.0679 29.5477 12.538 29.5516 13.0119Z" fill="#159671"/>
<path d="M35.6289 9.61508H35.6657C35.674 9.60487 35.6846 9.59657 35.6966 9.59074C35.7086 9.58491 35.7218 9.58171 35.7352 9.58135C35.716 9.57927 35.6966 9.5812 35.6783 9.58702C35.6599 9.59284 35.6431 9.6024 35.6289 9.61508Z" fill="#159671"/>
<path d="M44.5801 24.621C44.49 24.5235 44.3918 24.4333 44.2866 24.3512C44.1916 24.2803 44.093 24.2141 43.9911 24.1528C43.9196 24.12 43.8594 24.0676 43.8179 24.002C43.5872 23.6137 43.4227 23.1916 43.3308 22.752C43.2146 22.256 43.127 21.8175 43.0536 21.4326C42.9176 20.563 42.8326 19.6865 42.7989 18.8076C42.7642 17.9425 42.7377 17.0675 42.7296 16.1885C42.7214 15.3095 42.6949 14.4306 42.6603 13.5516C42.6256 12.6726 42.5482 11.8076 42.4341 10.9504V11.0179L42.3994 10.883V10.9127L42.2262 10.4385L42.3301 10.5734C42.1438 10.2572 41.8744 9.99487 41.5495 9.81351C41.3585 9.67414 41.1367 9.5802 40.9017 9.53921C40.6667 9.49821 40.4251 9.51129 40.1963 9.5774C40.0434 9.61113 39.9925 9.64883 40.0394 9.69645L39.7622 10L39.6236 10.3373H39.2751C39.0059 10.213 38.7197 10.1275 38.4252 10.0834C38.1331 10.033 37.8373 10.0052 37.5407 10H37.2961L37.2269 10.0337C36.1458 10.0311 35.0949 10.3803 34.2411 11.0258C33.3205 11.7074 32.5382 12.5498 31.9341 13.5099C31.2958 14.5048 30.7994 15.5794 30.4585 16.7044C30.1326 17.7056 29.9569 18.7475 29.9368 19.7976C29.9296 20.4383 30.0769 21.0716 30.3668 21.6468C30.6452 22.2103 31.0343 22.7152 31.5122 23.1329C32.5019 23.9908 33.7801 24.4658 35.1053 24.4683H35.3091C35.4232 24.4683 35.4843 24.4564 35.4843 24.4345H35.3437C35.5475 24.3889 35.6922 24.3552 35.7513 24.3333C35.8847 24.2795 36.0124 24.213 36.1324 24.1349L36.0978 24.1687C36.3974 24.0794 36.697 23.8016 37.0006 23.3413C37.3257 22.8369 37.6157 22.3119 37.8688 21.7699C38.1371 21.2017 38.3745 20.6202 38.5801 20.0278C38.7839 19.4544 38.9184 19.0099 39.0142 18.6945C39.1059 19.4583 39.218 20.2322 39.379 21.0079C39.5152 21.7474 39.7755 22.46 40.1494 23.1171C40.5004 23.7418 41.0071 24.2705 41.6229 24.6548C42.2486 25.0516 43.0679 25.25 44.0889 25.25C44.2264 25.2475 44.3631 25.2302 44.4966 25.1984C44.5596 25.1915 44.6176 25.1617 44.6592 25.115C44.7007 25.0684 44.7227 25.0082 44.7207 24.9464C44.7182 24.8245 44.6679 24.7081 44.5801 24.621ZM38.1114 13.2143C37.9585 13.7758 37.7812 14.4306 37.5733 15.1746C37.3654 15.9187 37.129 16.7004 36.8783 17.5238C36.64 18.2975 36.3618 19.0591 36.0448 19.8056C35.7833 20.4274 35.4576 21.0217 35.0726 21.5794C34.7262 22.0655 34.3654 22.3532 33.9966 22.4405C33.8271 21.9511 33.745 21.437 33.754 20.9206C33.7773 20.134 33.9145 19.3545 34.1616 18.6052C34.4324 17.6972 34.7864 16.8146 35.2194 15.9683C35.6411 15.1316 36.1412 14.3346 36.7133 13.5873C37.1694 12.9536 37.7611 12.4236 38.4476 12.0337C38.3661 12.256 38.254 12.6528 38.1114 13.2143Z" fill="#159671"/>
<path d="M56.5231 10.0377L55.6202 12.2342C54.9694 13.877 54.3967 15.539 53.9022 17.2203C53.4076 18.9015 52.858 20.5741 52.2534 22.2381C52.1284 22.6141 51.9772 22.9814 51.8009 23.3373C51.6221 23.6965 51.4135 24.0409 51.1773 24.3671L50.7595 24.4683V24.502C50.7154 24.5681 50.648 24.6161 50.57 24.6369C50.4964 24.6578 50.4203 24.6691 50.3437 24.6707C50.0836 24.6617 49.8262 24.6163 49.5795 24.5357C49.2801 24.4508 48.9889 24.3406 48.7092 24.2064C48.4338 24.0734 48.1724 23.9146 47.9286 23.7322C47.7208 23.592 47.5486 23.4074 47.4252 23.1925C46.9887 22.3686 46.662 21.4938 46.4531 20.5893C46.1759 19.508 45.9416 18.381 45.7581 17.2163C45.5747 16.0516 45.4219 14.881 45.3098 13.756C45.1977 12.631 45.1223 11.6806 45.106 10.9167L45.3831 10.6131H45.4871C45.6805 10.6206 45.8725 10.6486 46.0598 10.6965C46.3095 10.7545 46.5536 10.8335 46.7894 10.9326C47.0213 11.0289 47.2425 11.1479 47.4497 11.2877C47.6092 11.3811 47.7357 11.5195 47.8125 11.6845C48.2201 13.2163 48.6032 14.8056 48.9416 16.4465C49.2799 18.0873 49.5713 19.6925 49.8261 21.2461C49.8709 21.0219 49.983 20.5576 50.1562 19.8572C50.3295 19.1568 50.5394 18.3492 50.7819 17.4226C51.0244 16.4961 51.2894 15.5298 51.5808 14.5159C51.8723 13.502 52.1576 12.5695 52.447 11.7123C52.6796 10.9918 52.958 10.2861 53.2805 9.59923C53.5455 9.04566 53.7717 8.77185 53.9572 8.77185C54.1742 8.78346 54.3894 8.81737 54.5992 8.87304C55.1692 9.01133 55.71 9.24568 56.197 9.5655C56.4089 9.72225 56.5231 9.88098 56.5231 10.0377Z" fill="#159671"/>
<path d="M62.6025 9.61507H62.6373C62.6456 9.60487 62.6562 9.59656 62.6682 9.59074C62.6802 9.58491 62.6933 9.5817 62.7068 9.58134C62.6879 9.57955 62.6689 9.58163 62.651 9.58744C62.633 9.59325 62.6165 9.60267 62.6025 9.61507Z" fill="#159671"/>
<path d="M71.5535 24.6211C71.4633 24.5235 71.3652 24.4333 71.26 24.3512C71.1649 24.2803 71.0663 24.2141 70.9645 24.1528C70.8929 24.12 70.8327 24.0676 70.7912 24.002C70.5606 23.6137 70.3961 23.1916 70.3041 22.752C70.188 22.256 70.1003 21.8175 70.027 21.4326C69.8892 20.5651 69.8021 19.6906 69.7661 18.8135C69.7315 17.9484 69.705 17.0734 69.6968 16.1945C69.6887 15.3155 69.6622 14.4365 69.6275 13.5576C69.5929 12.6786 69.5154 11.8135 69.4013 10.9564V11.0238L69.3666 10.8889V10.9127L69.1934 10.4385L69.2973 10.5734C69.1111 10.2572 68.8416 9.99487 68.5168 9.81351C68.3257 9.67414 68.1039 9.5802 67.8689 9.53921C67.6339 9.49821 67.3924 9.51129 67.1635 9.5774C67.0107 9.61113 66.9597 9.64883 67.0066 9.69645L66.7294 10L66.5908 10.3373H66.2362C65.9671 10.213 65.6808 10.1275 65.3863 10.0834C65.0942 10.033 64.7985 10.0052 64.5018 10H64.2573L64.188 10.0337C63.107 10.0311 62.056 10.3803 61.2022 11.0258C60.2823 11.7101 59.5013 12.5552 58.8992 13.5179C58.261 14.5127 57.7646 15.5873 57.4237 16.7123C57.0978 17.7136 56.9221 18.7554 56.902 19.8056C56.8974 20.4439 57.046 21.0744 57.3361 21.6468C57.6144 22.2103 58.0036 22.7152 58.4814 23.133C59.4712 23.9908 60.7494 24.4658 62.0745 24.4683H62.2783C62.3924 24.4683 62.4536 24.4564 62.4536 24.4345H62.313C62.5168 24.3889 62.6615 24.3552 62.7308 24.3334C62.8642 24.2795 62.9918 24.213 63.1119 24.1349L63.0772 24.1687C63.3768 24.0794 63.6764 23.8016 63.9801 23.3413C64.3051 22.8369 64.5952 22.3119 64.8483 21.7699C65.1166 21.2017 65.354 20.6202 65.5596 20.0278C65.7634 19.4544 65.8979 19.0099 65.9937 18.6945C66.0854 19.4584 66.1975 20.2322 66.3585 21.008C66.4923 21.7484 66.7505 22.4623 67.1228 23.1211C67.4738 23.7457 67.9805 24.2745 68.5963 24.6588C69.2219 25.0556 70.0412 25.254 71.0623 25.254C71.1997 25.2515 71.3364 25.2342 71.4699 25.2024C71.5329 25.1955 71.591 25.1657 71.6325 25.119C71.674 25.0723 71.696 25.0121 71.6941 24.9504C71.6926 24.8271 71.6422 24.7091 71.5535 24.6211ZM65.0806 13.2143C64.9278 13.7758 64.7505 14.4306 64.5426 15.1746C64.3347 15.9187 64.0983 16.7004 63.8476 17.5238C63.6092 18.2975 63.331 19.0591 63.0141 19.8056C62.7525 20.4274 62.4268 21.0217 62.0419 21.5794C61.6954 22.0655 61.3347 22.3532 60.9658 22.4405C60.7963 21.9511 60.7143 21.437 60.7233 20.9207C60.7466 20.134 60.8838 19.3545 61.1309 18.6052C61.4017 17.6972 61.7557 16.8146 62.1886 15.9683C62.6104 15.1316 63.1105 14.3346 63.6825 13.5873C64.1386 12.9536 64.7303 12.4236 65.4169 12.0337C65.3395 12.256 65.2274 12.6528 65.0806 13.2143Z" fill="#159671"/>
<path d="M13.7159 19.2043C13.9613 19.8427 14.25 20.4644 14.58 21.0655C14.8471 21.5644 15.1808 22.0268 15.5725 22.4405C16.4752 23.4545 17.5019 24.3574 18.6296 25.129C20.9196 26.6993 23.4463 27.9135 26.1194 28.7282C28.8282 29.5697 31.6165 30.146 34.4428 30.4484C37.2975 30.7358 40.168 30.8484 43.0372 30.7857C48.7988 30.621 54.5685 29.8928 60.275 28.8016L62.4149 28.3928L64.5447 27.9206C65.9713 27.6051 67.3857 27.2976 68.794 26.9286L70.9075 26.3889C71.6147 26.2163 72.3178 26.0297 73.0189 25.8234L75.1221 25.2282L76.1738 24.9305L76.6996 24.7817L76.9625 24.7063L77.0929 24.6686C77.15 24.6984 77.1378 24.494 77.3151 24.9424L78.7152 29.7401C78.8029 30.2103 78.701 30.0297 78.6683 30.0833L78.5318 30.1151L78.2587 30.1825L77.7105 30.3135L76.616 30.5793L74.4292 31.1071C73.7037 31.2897 72.97 31.4524 72.2322 31.6051L70.0291 32.0734C68.5637 32.4028 67.08 32.6686 65.5984 32.9345L63.383 33.3333L61.1412 33.6706C55.1778 34.5555 49.1289 35.121 43.0352 34.996C39.9772 34.924 36.9269 34.6636 33.9027 34.2163C30.8488 33.7462 27.8513 32.9778 24.9557 31.9226C22.016 30.8484 19.2657 29.3356 16.8035 27.4385C15.5735 26.4619 14.4519 25.3627 13.4571 24.1587C12.9568 23.5482 12.4999 22.9052 12.0895 22.2341C11.8857 21.8988 11.6819 21.5476 11.5087 21.1924C11.4231 21.0059 11.3334 20.8274 11.2519 20.6369C11.1704 20.4464 11.097 20.2758 11.0073 20.0039L13.7159 19.2043Z" fill="#159671"/>
</g>
<defs>
<clipPath id="clip0_2704_21171">
<rect width="78.75" height="42" fill="white"/>
</clipPath>
</defs>
</svg>
