<svg width="94" height="50" viewBox="0 0 94 50" fill="none" xmlns="http://www.w3.org/2000/svg">
<g clip-path="url(#clip0_2735_17344)">
<path d="M34.3182 49.9976C36.7594 49.9976 38.7384 48.0761 38.7384 45.7058C38.7384 43.3355 36.7594 41.4139 34.3182 41.4139C31.877 41.4139 29.8979 43.3355 29.8979 45.7058C29.8979 48.0761 31.877 49.9976 34.3182 49.9976Z" fill="#EAC544"/>
<path d="M71.9962 49.9976C74.4374 49.9976 76.4164 48.0761 76.4164 45.7058C76.4164 43.3355 74.4374 41.4139 71.9962 41.4139C69.5549 41.4139 67.5759 43.3355 67.5759 45.7058C67.5759 48.0761 69.5549 49.9976 71.9962 49.9976Z" fill="#EAC544"/>
<path d="M17.376 26.3535C16.1012 24.0386 12.5641 1.91563 12.5908 1.72902C12.2541 1.1919 11.7697 0.756697 11.192 0.472411C10.6054 0.166516 9.95064 0.00434881 9.28476 0C9.14739 0.000659307 9.01251 0.0356375 8.8931 0.101568C8.76659 0.165344 8.6328 0.24093 8.499 0.32124L8.37493 0.557445C8.37493 0.557445 7.40184 4.5068 6.96639 6.53345C6.53093 8.56009 6.05412 10.582 5.55541 12.6087C5.05671 14.6353 4.50935 16.636 3.92063 18.6248C3.33192 20.6137 2.64103 22.5505 1.86742 24.4567C1.78471 24.6433 1.64605 24.9291 1.45386 25.3023C1.26168 25.6755 1.05003 26.0676 0.843251 26.455C0.636471 26.8424 0.439421 27.2038 0.264266 27.5392C0.0891105 27.8746 -0.141997 28.3423 0.123168 28.7202C0.419959 29.1383 2.13259 29.8139 2.43911 29.9013C2.70897 29.9767 2.98789 30.0172 3.26867 30.0217C3.35138 30.0217 4.41204 29.8399 4.80127 29.3131C5.22346 28.729 5.59066 28.1092 5.89843 27.4613C6.23761 26.7701 6.53491 26.0603 6.7888 25.3354C7.03207 24.6268 7.21452 24.1213 7.32886 23.8261C7.93903 23.7172 8.55448 23.6383 9.17286 23.5899C9.81996 23.5332 10.4354 23.5095 11.0169 23.5095H11.9899C12.3162 23.5065 12.642 23.5334 12.963 23.5899C13.2379 24.2465 17.8041 27.1259 17.376 26.3535ZM11.3696 21.7073C11.0073 21.6391 10.6391 21.605 10.27 21.6057C9.88321 21.6057 9.50371 21.6199 9.1315 21.6459C8.7593 21.6719 8.37979 21.712 7.99056 21.7663C8.54035 20.1003 9.0269 18.4303 9.45019 16.7564C9.88078 15.0817 10.2846 13.3976 10.6665 11.7087C10.8563 13.3984 11.0631 15.1148 11.2869 16.858C11.5001 18.5676 11.8889 20.2523 12.4473 21.8868C12.0775 21.8325 11.7102 21.7711 11.3696 21.7073Z" fill="white"/>
<path d="M31.7492 12.0087C31.7501 12.0189 31.7532 12.0287 31.7582 12.0377C31.7632 12.0466 31.7701 12.0545 31.7784 12.0607C31.7687 12.0252 31.759 12.0087 31.7492 12.0087ZM30.2361 18.0107C30.264 18.0129 30.2917 18.0177 30.3188 18.0249C30.3727 18.039 30.4284 18.0462 30.4842 18.0461C30.4048 18.0182 30.3204 18.0062 30.2361 18.0107V18.0107Z" fill="white"/>
<path d="M35.2744 15.4904C35.29 16.1113 35.197 16.7302 34.9995 17.321C34.8171 17.8194 34.3524 18.2115 33.6007 18.502H33.3039L32.9293 18.4618H32.686L32.4793 18.4217L32.4379 18.3815C31.968 18.2759 31.5125 18.1174 31.0804 17.9091C30.6556 17.7156 30.2795 17.4342 29.9784 17.0848L29.8106 16.6124C29.999 16.1131 30.2276 15.6289 30.4942 15.1644C30.7457 14.6789 30.8535 14.1351 30.8056 13.5936C29.9892 14.3047 29.272 15.1162 28.6721 16.0077C28.0782 16.8916 27.5715 17.828 27.1589 18.8043C26.7395 19.7958 26.3796 20.81 26.0812 21.8419C25.7779 22.8891 25.4885 23.9127 25.2127 24.9126C25.1766 25.078 25.1692 25.248 25.1909 25.4157C25.1909 25.6708 25.2176 25.9378 25.2322 26.2188C25.2468 26.4999 25.259 26.7834 25.2736 27.0645C25.2882 27.3455 25.2955 27.5369 25.2955 27.6479V28.6541L25.13 29.0155C24.9042 29.0963 24.6652 29.1371 24.4245 29.136C23.7474 29.1866 23.0709 29.0294 22.4908 28.6865C21.9106 28.3436 21.4561 27.8324 21.1915 27.2251C20.8992 26.6012 20.7103 25.9363 20.6319 25.2551C20.5354 24.514 20.4874 23.7676 20.4884 23.0206C20.4884 22.2718 20.5152 21.5372 20.5711 20.8286C20.6271 20.12 20.6538 19.4964 20.6538 18.9579C20.6542 17.8688 20.5916 16.7805 20.4665 15.6982C20.3431 14.6293 20.2813 13.5544 20.2816 12.4788V12.715C20.2816 12.4976 20.2816 12.2874 20.2597 12.0701C20.2378 11.8528 20.2232 11.6426 20.1989 11.4276C20.1533 11.356 20.125 11.2752 20.1162 11.1914C20.1656 11.0197 20.2664 10.8659 20.4057 10.7497H20.6125C20.8626 10.7539 21.1098 10.8019 21.3423 10.8914C21.6026 10.9859 21.8459 11.0875 22.0721 11.1914L22.3154 11.3119C22.7933 11.5123 23.2183 11.8151 23.5585 12.1977C23.8828 12.5771 24.1423 13.0045 24.3272 13.4637C24.5198 13.9334 24.6719 14.4177 24.7822 14.9117C24.8916 15.4101 24.9743 15.8966 25.0254 16.3809C25.2563 15.9081 25.5188 15.4504 25.8112 15.0109C26.1552 14.4937 26.5305 13.9968 26.9351 13.5228C27.3409 13.0521 27.779 12.6086 28.2463 12.1953C28.6427 11.83 29.1054 11.5392 29.6111 11.3379L29.6524 11.2977V11.3379L29.6938 11.2977C29.9371 11.2434 30.1803 11.182 30.4236 11.1182C30.6744 11.049 30.9341 11.0148 31.1948 11.0166L31.0245 11.0568C31.6239 10.9399 32.2463 11.0179 32.7955 11.2788C33.3089 11.5345 33.762 11.8908 34.1262 12.3252C34.5045 12.772 34.7925 13.2841 34.9752 13.8346C35.1687 14.3666 35.2698 14.9262 35.2744 15.4904V15.4904Z" fill="white"/>
<path d="M42.5286 11.4465H42.5724C42.5823 11.4344 42.5948 11.4245 42.6091 11.4176C42.6234 11.4106 42.6391 11.4068 42.6551 11.4064C42.6322 11.4039 42.6091 11.4062 42.5873 11.4131C42.5655 11.4201 42.5455 11.4315 42.5286 11.4465V11.4465Z" fill="white"/>
<path d="M53.2132 29.3108C53.1056 29.1946 52.9885 29.0872 52.8629 28.9895C52.7495 28.9051 52.6317 28.8263 52.5102 28.7533C52.4248 28.7142 52.3529 28.6518 52.3034 28.5738C52.028 28.1115 51.8317 27.609 51.722 27.0857C51.5833 26.4952 51.4787 25.9732 51.3911 25.5149C51.2288 24.4797 51.1273 23.4364 51.087 22.3899C51.0457 21.3601 51.014 20.3184 51.0043 19.272C50.9946 18.2256 50.963 17.1792 50.9216 16.1329C50.8802 15.0865 50.7878 14.0566 50.6516 13.0362V13.1165L50.6102 12.9559V12.9913L50.4034 12.4268L50.5275 12.5874C50.3051 12.2109 49.9836 11.8986 49.5958 11.6827C49.3678 11.5168 49.1029 11.405 48.8224 11.3562C48.542 11.3074 48.2536 11.323 47.9805 11.4017C47.798 11.4418 47.7372 11.4867 47.7931 11.5434L47.4623 11.9048L47.2969 12.3063H46.8809C46.5596 12.1583 46.2179 12.0565 45.8664 12.004C45.5177 11.9441 45.1647 11.9109 44.8106 11.9048H44.5187L44.436 11.9449C43.1456 11.9418 41.8912 12.3575 40.8721 13.126C39.7732 13.9374 38.8393 14.9402 38.1182 16.0832C37.3564 17.2676 36.7639 18.5469 36.357 19.8862C35.9679 21.0781 35.7582 22.3184 35.7342 23.5686C35.7257 24.3313 35.9015 25.0853 36.2475 25.77C36.5798 26.4409 37.0442 27.0419 37.6147 27.5392C38.796 28.5604 40.3218 29.1259 41.9035 29.1289H42.1468C42.283 29.1289 42.356 29.1147 42.356 29.0887H42.1882C42.4314 29.0344 42.6042 28.9942 42.6747 28.9683C42.8339 28.9041 42.9863 28.825 43.1296 28.7321L43.0883 28.7722C43.4459 28.6659 43.8035 28.3352 44.166 27.7872C44.554 27.1868 44.9002 26.5618 45.2023 25.9165C45.5225 25.2401 45.8059 24.5479 46.0513 23.8426C46.2946 23.16 46.4551 22.6309 46.5695 22.2553C46.679 23.1647 46.8128 24.0859 47.0049 25.0095C47.1675 25.8897 47.4782 26.738 47.9245 27.5203C48.3435 28.264 48.9483 28.8935 49.6834 29.3509C50.4302 29.8233 51.4081 30.0595 52.6269 30.0595C52.791 30.0566 52.9541 30.036 53.1135 29.9981C53.1887 29.9898 53.258 29.9544 53.3076 29.8988C53.3571 29.8433 53.3834 29.7716 53.3811 29.6981C53.3781 29.5529 53.318 29.4144 53.2132 29.3108V29.3108ZM45.4918 15.7313C45.3093 16.3998 45.0977 17.1792 44.8496 18.065C44.6014 18.9508 44.3192 19.8814 44.02 20.8617C43.7355 21.7828 43.4034 22.6894 43.025 23.578C42.7129 24.3183 42.3241 25.0258 41.8646 25.6897C41.4511 26.2684 41.0205 26.6109 40.5801 26.7149C40.3778 26.1322 40.2799 25.5203 40.2907 24.9055C40.3184 23.969 40.4822 23.041 40.7772 22.149C41.1004 21.068 41.523 20.0174 42.0398 19.0098C42.5432 18.0138 43.1401 17.065 43.823 16.1754C44.3674 15.4209 45.0736 14.79 45.8932 14.3259C45.7959 14.5904 45.6621 15.0628 45.4918 15.7313Z" fill="white"/>
<path d="M67.4689 11.9496L66.3912 14.5644C65.6143 16.5202 64.9307 18.4988 64.3404 20.5003C63.7501 22.5017 63.094 24.493 62.3723 26.4739C62.2231 26.9215 62.0427 27.3587 61.8323 27.7825C61.6188 28.2101 61.3698 28.6201 61.0879 29.0084L60.5892 29.1289V29.169C60.5366 29.2477 60.4561 29.3048 60.3629 29.3297C60.2751 29.3545 60.1843 29.368 60.0929 29.3698C59.7824 29.3591 59.4752 29.305 59.1806 29.2092C58.8233 29.1081 58.4757 28.9769 58.1419 28.8171C57.8131 28.6588 57.5011 28.4697 57.2101 28.2526C56.962 28.0857 56.7565 27.8659 56.6092 27.6101C56.0882 26.6292 55.6982 25.5878 55.4488 24.5111C55.118 23.2237 54.8382 21.8821 54.6193 20.4956C54.4003 19.109 54.2179 17.7154 54.0841 16.3761C53.9503 15.0369 53.8603 13.9054 53.8408 12.996L54.1717 12.6346H54.2957C54.5266 12.6436 54.7558 12.6768 54.9793 12.7339C55.2775 12.8029 55.5689 12.8969 55.8502 13.0149C56.127 13.1296 56.3911 13.2713 56.6384 13.4377C56.8288 13.5489 56.9798 13.7137 57.0715 13.9102C57.558 15.7337 58.0154 17.6257 58.4192 19.5791C58.823 21.5325 59.1709 23.4434 59.475 25.2929C59.5285 25.026 59.6623 24.4733 59.8691 23.6395C60.0759 22.8057 60.3264 21.8443 60.6159 20.7412C60.9054 19.6381 61.2217 18.4878 61.5695 17.2808C61.9174 16.0738 62.258 14.9636 62.6034 13.9432C62.8811 13.0855 63.2134 12.2454 63.5984 11.4276C63.9147 10.7686 64.1847 10.4427 64.4061 10.4427C64.6652 10.4565 64.922 10.4969 65.1724 10.5631C65.8528 10.7277 66.4983 11.0067 67.0796 11.3875C67.3326 11.5741 67.4689 11.763 67.4689 11.9496Z" fill="white"/>
<path d="M74.7256 11.4465H74.7669C74.7769 11.4344 74.7894 11.4245 74.8037 11.4175C74.818 11.4106 74.8337 11.4068 74.8496 11.4064C74.8272 11.4042 74.8046 11.4067 74.7832 11.4136C74.7618 11.4205 74.7422 11.4317 74.7256 11.4465V11.4465Z" fill="white"/>
<path d="M85.4101 29.3108C85.3024 29.1946 85.1853 29.0872 85.0597 28.9895C84.9463 28.9051 84.8286 28.8263 84.707 28.7533C84.6216 28.7142 84.5497 28.6519 84.5002 28.5738C84.2249 28.1115 84.0285 27.609 83.9188 27.0857C83.7801 26.4952 83.6755 25.9732 83.588 25.5149C83.4235 24.4822 83.3195 23.4412 83.2766 22.397C83.2352 21.3672 83.2036 20.3255 83.1939 19.2791C83.1841 18.2327 83.1525 17.1863 83.1111 16.1399C83.0698 15.0936 82.9773 14.0637 82.8411 13.0433V13.1236L82.7997 12.963V12.9913L82.593 12.4268L82.717 12.5874C82.4947 12.2109 82.1731 11.8986 81.7853 11.6827C81.5573 11.5168 81.2925 11.405 81.012 11.3562C80.7315 11.3074 80.4432 11.323 80.17 11.4017C79.9875 11.4418 79.9267 11.4867 79.9827 11.5434L79.6518 11.9048L79.4864 12.3063H79.0631C78.7418 12.1583 78.4001 12.0565 78.0487 12.004C77.6999 11.9441 77.3469 11.9109 76.9929 11.9048H76.7009L76.6182 11.9449C75.3279 11.9418 74.0734 12.3575 73.0543 13.126C71.9562 13.9406 71.024 14.9467 70.3053 16.0927C69.5435 17.277 68.951 18.5564 68.544 19.8956C68.155 21.0876 67.9453 22.3279 67.9213 23.5781C67.9158 24.3379 68.0932 25.0885 68.4394 25.77C68.7717 26.4409 69.2362 27.0419 69.8066 27.5392C70.988 28.5604 72.5138 29.126 74.0955 29.1289H74.3388C74.475 29.1289 74.548 29.1147 74.548 29.0887H74.3801C74.6234 29.0344 74.7961 28.9943 74.8788 28.9683C75.0381 28.9042 75.1904 28.825 75.3337 28.7321L75.2924 28.7722C75.65 28.6659 76.0076 28.3352 76.3701 27.7872C76.7581 27.1868 77.1043 26.5618 77.4064 25.9165C77.7266 25.2401 78.01 24.5479 78.2554 23.8426C78.4987 23.16 78.6593 22.6309 78.7736 22.2553C78.8831 23.1647 79.0169 24.0859 79.2091 25.0095C79.3688 25.8909 79.677 26.7409 80.1213 27.5251C80.5403 28.2687 81.1451 28.8982 81.8802 29.3556C82.627 29.8281 83.605 30.0643 84.8238 30.0643C84.9878 30.0613 85.151 30.0407 85.3103 30.0029C85.3855 29.9946 85.4548 29.9591 85.5044 29.9036C85.554 29.848 85.5802 29.7764 85.5779 29.7029C85.5761 29.556 85.516 29.4156 85.4101 29.3108V29.3108ZM77.6837 15.7313C77.5013 16.3998 77.2896 17.1792 77.0415 18.065C76.7934 18.9508 76.5112 19.8814 76.212 20.8617C75.9274 21.7828 75.5953 22.6894 75.217 23.5781C74.9048 24.3183 74.516 25.0258 74.0566 25.6897C73.643 26.2684 73.2124 26.6109 72.7721 26.7149C72.5698 26.1323 72.4719 25.5203 72.4826 24.9055C72.5104 23.969 72.6742 23.041 72.9691 22.149C73.2924 21.068 73.7149 20.0174 74.2317 19.0098C74.7352 18.0138 75.3321 17.065 76.0149 16.1754C76.5593 15.4209 77.2656 14.79 78.0851 14.3259C77.9927 14.5904 77.8589 15.0628 77.6837 15.7313Z" fill="white"/>
<path d="M16.3722 22.8623C16.6652 23.6222 17.0098 24.3624 17.4037 25.0779C17.7225 25.672 18.1209 26.2224 18.5884 26.7148C19.666 27.9221 20.8914 28.9969 22.2375 29.9154C24.9709 31.7849 27.987 33.2304 31.1777 34.2002C34.4111 35.202 37.7393 35.8881 41.1129 36.2481C44.5205 36.5902 47.9468 36.7243 51.3717 36.6497C58.2489 36.4536 65.136 35.5867 71.9476 34.2876L74.5019 33.801L77.0441 33.2388C78.747 32.8633 80.4353 32.4972 82.1163 32.0578L84.639 31.4153C85.4832 31.2098 86.3224 30.9878 87.1593 30.7422L89.6699 30.0335L90.9251 29.6792L91.5528 29.5021L91.8666 29.4123L92.0223 29.3674C92.0904 29.4029 92.0758 29.1596 92.2875 29.6934L93.9587 35.4049C94.0633 35.9647 93.9417 35.7497 93.9028 35.8135L93.7398 35.8513L93.4138 35.9316L92.7594 36.0875L91.453 36.404L88.8427 37.0323C87.9767 37.2496 87.1009 37.4433 86.2203 37.6252L83.5905 38.1826C81.8414 38.5747 80.0704 38.8913 78.3018 39.2078L75.6574 39.6825L72.9815 40.0841C65.8633 41.1376 58.643 41.8108 51.3692 41.6619C47.719 41.5762 44.0781 41.2662 40.4683 40.7337C36.823 40.174 33.245 39.2592 29.7886 38.0031C26.2796 36.7243 22.9968 34.9233 20.0578 32.6649C18.5896 31.5023 17.2508 30.1937 16.0633 28.7604C15.4661 28.0336 14.9208 27.2681 14.4309 26.4692C14.1877 26.07 13.9444 25.6519 13.7376 25.2291C13.6354 25.0071 13.5284 24.7945 13.4311 24.5677C13.3338 24.341 13.2462 24.1378 13.1392 23.8142L16.3722 22.8623Z" fill="white"/>
</g>
<defs>
<clipPath id="clip0_2735_17344">
<rect width="94" height="50" fill="white"/>
</clipPath>
</defs>
</svg>
