<svg width="18" height="21" viewBox="0 0 18 21" fill="none" xmlns="http://www.w3.org/2000/svg">
<path d="M17.4898 6.52C17.4841 6.49363 17.4841 6.46636 17.4898 6.44C17.485 6.41692 17.485 6.39308 17.4898 6.37V6.28L17.4298 6.13C17.4054 6.08907 17.3751 6.05199 17.3398 6.02L17.2498 5.94H17.1998L13.2598 3.45L9.53982 1.15C9.45376 1.08173 9.35528 1.03079 9.24982 0.999997H9.16982C9.08044 0.985078 8.98921 0.985078 8.89982 0.999997H8.79982C8.68367 1.02569 8.5723 1.06956 8.46982 1.13L0.999824 5.78L0.909824 5.85L0.819824 5.93L0.719824 6L0.669824 6.06L0.609824 6.21V6.3V6.36C0.600111 6.42631 0.600111 6.49368 0.609824 6.56V15.29C0.609484 15.4599 0.65246 15.6272 0.734695 15.7759C0.81693 15.9246 0.935711 16.0499 1.07982 16.14L8.57982 20.78L8.72982 20.84H8.80982C8.979 20.8937 9.16064 20.8937 9.32982 20.84H9.40982L9.55982 20.78L16.9998 16.21C17.1439 16.1199 17.2627 15.9946 17.345 15.8459C17.4272 15.6972 17.4702 15.5299 17.4698 15.36V6.63C17.4698 6.63 17.4898 6.56 17.4898 6.52ZM8.99982 3.17L10.7798 4.27L5.18982 7.73L3.39982 6.63L8.99982 3.17ZM7.99982 18.17L2.49982 14.81V8.42L7.99982 11.82V18.17ZM8.99982 10.06L7.08982 8.91L12.6798 5.44L14.5998 6.63L8.99982 10.06ZM15.4998 14.78L9.99982 18.2V11.82L15.4998 8.42V14.78Z" fill="#7B817F"/>
</svg>
