<svg width="21" height="20" viewBox="0 0 21 20" fill="none" xmlns="http://www.w3.org/2000/svg">
<path d="M19.6401 11C19.4958 10.8807 19.3208 10.8043 19.1352 10.7795C18.9496 10.7548 18.7607 10.7827 18.5901 10.86C17.5327 11.3439 16.383 11.5929 15.2201 11.59C13.069 11.5874 11.0061 10.7344 9.48127 9.2171C7.95644 7.69976 7.09333 5.64111 7.08014 3.49C7.0847 2.81583 7.16861 2.14454 7.33014 1.49C7.36441 1.31554 7.35156 1.13509 7.29289 0.967253C7.23423 0.799414 7.13187 0.65025 6.99638 0.53513C6.86088 0.42001 6.69714 0.343097 6.52203 0.312313C6.34692 0.28153 6.16677 0.29799 6.00014 0.359999C4.43246 1.06491 3.06971 2.15676 2.03989 3.53298C1.01008 4.9092 0.347015 6.52462 0.112984 8.22748C-0.121046 9.93034 0.081641 11.6647 0.702005 13.2678C1.32237 14.8708 2.34005 16.2898 3.65944 17.3915C4.97882 18.4932 6.55661 19.2414 8.24458 19.5658C9.93255 19.8903 11.6753 19.7803 13.3091 19.2462C14.9429 18.7122 16.4141 17.7716 17.5845 16.5128C18.755 15.254 19.5862 13.7183 20.0001 12.05C20.0506 11.859 20.0433 11.6573 19.9792 11.4705C19.9151 11.2836 19.7971 11.1199 19.6401 11ZM10.1401 17.69C8.46189 17.6782 6.82834 17.1479 5.46313 16.1717C4.09792 15.1956 3.0678 13.8213 2.51382 12.2371C1.95984 10.6529 1.90907 8.93618 2.36847 7.322C2.82788 5.70782 3.77499 4.2751 5.08014 3.22V3.49C5.08278 6.17848 6.15195 8.75609 8.053 10.6571C9.95404 12.5582 12.5317 13.6274 15.2201 13.63C15.926 13.6326 16.6301 13.5588 17.3201 13.41C16.63 14.7155 15.5966 15.8078 14.3313 16.5691C13.066 17.3304 11.6168 17.7318 10.1401 17.73V17.69Z" fill="#7B817F"/>
</svg>
